<svg width="1024" height="500" viewBox="0 0 1024 500" xmlns="http://www.w3.org/2000/svg">
  <!-- Feature graphic 1024x500 pro Google Play. Export do PNG (např. otevři v prohlížeči a vyfoť/printscreen, nebo přes Inkscape: File > Export). -->
  <defs>
    <clipPath id="round"><rect x="0" y="0" width="1024" height="500" rx="0"/></clipPath>
  </defs>
  <g clip-path="url(#round)">
    <!-- pozadí -->
    <rect width="1024" height="500" fill="#FFD60A"/>

    <!-- dekorativní mince -->
    <g opacity="0.9">
      <circle cx="120" cy="430" r="26" fill="#FFE680" stroke="#15233B" stroke-width="4"/>
      <text x="120" y="438" font-family="Arial, sans-serif" font-size="18" font-weight="800" fill="#15233B" text-anchor="middle">Kč</text>
      <circle cx="470" cy="450" r="20" fill="#FFE680" stroke="#15233B" stroke-width="4"/>
      <text x="470" y="457" font-family="Arial, sans-serif" font-size="14" font-weight="800" fill="#15233B" text-anchor="middle">Kč</text>
      <circle cx="980" cy="70" r="22" fill="#FFE680" stroke="#15233B" stroke-width="4"/>
      <text x="980" y="77" font-family="Arial, sans-serif" font-size="15" font-weight="800" fill="#15233B" text-anchor="middle">€</text>
    </g>

    <!-- bublina Čau lidi! -->
    <g>
      <rect x="64" y="56" width="196" height="58" rx="16" fill="#15233B"/>
      <rect x="60" y="50" width="196" height="58" rx="16" fill="#FFFFFF" stroke="#15233B" stroke-width="4"/>
      <text x="158" y="88" font-family="Arial, sans-serif" font-size="26" font-weight="800" fill="#15233B" text-anchor="middle">Čau lidi!</text>
    </g>

    <!-- titul -->
    <text x="60" y="250" font-family="Arial, sans-serif" font-size="86" font-weight="800" fill="#15233B" letter-spacing="-2">Dotačník</text>

    <!-- tagline -->
    <text x="64" y="305" font-family="Arial, sans-serif" font-size="30" font-weight="700" fill="#15233B">Kdo komu dluží? Spočítám to za vás.</text>

    <!-- badge -->
    <g>
      <rect x="64" y="345" width="430" height="62" rx="14" fill="#15233B"/>
      <rect x="60" y="340" width="430" height="62" rx="14" fill="#1D5FD8" stroke="#15233B" stroke-width="4"/>
      <text x="275" y="380" font-family="Arial, sans-serif" font-size="26" font-weight="800" fill="#FFFFFF" text-anchor="middle">Rozděl útraty s partou</text>
    </g>

    <!-- maskot (zjednodušená karikatura) -->
    <g transform="translate(690,70) scale(3.0)">
      <!-- vlasy vzadu -->
      <rect x="17" y="1" width="66" height="55" rx="28" fill="#B9B1A0"/>
      <!-- uši -->
      <rect x="15" y="41" width="13" height="16" rx="8" fill="#F4C9A0" stroke="#15233B" stroke-width="3"/>
      <rect x="72" y="41" width="13" height="16" rx="8" fill="#F4C9A0" stroke="#15233B" stroke-width="3"/>
      <!-- obličej -->
      <rect x="22" y="9" width="56" height="69" rx="27" fill="#F4C9A0" stroke="#15233B" stroke-width="3"/>
      <!-- vlasy nahoře -->
      <rect x="23" y="3" width="54" height="27" rx="24" fill="#C7BFAE" stroke="#15233B" stroke-width="3"/>
      <!-- obočí -->
      <rect x="30" y="33" width="14" height="5" rx="2.5" fill="#8B8475"/>
      <rect x="56" y="33" width="14" height="5" rx="2.5" fill="#8B8475"/>
      <!-- oči -->
      <circle cx="37.5" cy="44.5" r="6.5" fill="#FFFFFF" stroke="#15233B" stroke-width="2"/>
      <circle cx="38.5" cy="46" r="3" fill="#15233B"/>
      <circle cx="62.5" cy="44.5" r="6.5" fill="#FFFFFF" stroke="#15233B" stroke-width="2"/>
      <circle cx="63.5" cy="46" r="3" fill="#15233B"/>
      <!-- nos -->
      <rect x="45" y="48" width="11" height="15" rx="5" fill="#E6B488"/>
      <!-- pusa -->
      <rect x="39" y="64" width="23" height="9" rx="5" fill="#8A3D2E" stroke="#15233B" stroke-width="2"/>
      <!-- límec + kravata -->
      <path d="M13 103 L13 95 Q13 84 43 84 L57 84 Q87 84 87 95 L87 103 Z" fill="#15233B"/>
      <rect x="45" y="84" width="10" height="17" rx="3" fill="#E23B2E" stroke="#15233B" stroke-width="2"/>
    </g>
  </g>
</svg>
